<svg xmlns="http://www.w3.org/2000/svg" xmlns:xlink="http://www.w3.org/1999/xlink" width="44.456" height="13.638" viewBox="0 0 44.456 13.638">
  <defs>
    <clipPath id="clip-path">
      <rect id="Rectangle_5442" data-name="Rectangle 5442" width="13.638" height="44.456" fill="#256693"/>
    </clipPath>
  </defs>
  <g id="חץ_חזרה_לעמוד_קודם" data-name="חץ חזרה לעמוד קודם" transform="translate(0 13.638) rotate(-90)">
    <g id="Group_89314" data-name="Group 89314" clip-path="url(#clip-path)">
      <path id="Path_124016" data-name="Path 124016" d="M1,0H1A1,1,0,0,1,2,1V42.775H0V1A1,1,0,0,1,1,0" transform="translate(5.819 0)" fill="#256693"/>
      <path id="Path_124017" data-name="Path 124017" d="M6.8,9.041H6.791A2.47,2.47,0,0,1,4.808,7.958L.191,1.586A1,1,0,0,1,1.81.413L6.427,6.785a.523.523,0,0,0,.369.257.524.524,0,0,0,.369-.254L11.832.41a1,1,0,0,1,1.614,1.18L8.779,7.968A2.474,2.474,0,0,1,6.8,9.041" transform="translate(-0.001 35.415)" fill="#256693"/>
    </g>
  </g>
</svg>
