<svg xmlns="http://www.w3.org/2000/svg" width="30" height="30" viewBox="0 0 30 30">
  <g id="Group_90358" data-name="Group 90358" transform="translate(-1552 -2787)">
    <circle id="Ellipse_992" data-name="Ellipse 992" cx="15" cy="15" r="15" transform="translate(1552 2787)" fill="#fff"/>
    <g id="Group_90351" data-name="Group 90351" transform="translate(1558.667 2793.667)">
      <g id="Group_88557" data-name="Group 88557" transform="translate(0 0)">
        <path id="Path_123090" data-name="Path 123090" d="M213.735,19.207a.649.649,0,0,0-.137.028,4.7,4.7,0,0,0-2.9,2.1,4.618,4.618,0,0,0-.37,3.2,14.264,14.264,0,0,0,4.115,6.733,14.57,14.57,0,0,0,6.859,4.127,5.116,5.116,0,0,0,3.356-.34,4.932,4.932,0,0,0,2.316-2.842.6.6,0,0,0-.253-.708l-4.437-2.7-.009-.009a.583.583,0,0,0-.068-.038.634.634,0,0,0-.215-.085h-.019l-.049-.01h-.009a.636.636,0,0,0-.3.057,1.571,1.571,0,0,0-.155.094c-.007.009-.013.019-.02.028a.646.646,0,0,0-.068.066l-.973.954A10.818,10.818,0,0,1,216.06,25.6l.9-.86a.656.656,0,0,0,.049-.047c.013-.012.026-.025.039-.038v-.01a.523.523,0,0,0,.039-.038V24.6c.007-.009.013-.019.02-.028l.019-.019a.5.5,0,0,0,.019-.047V24.5l.01-.019.019-.038c0-.016.007-.032.009-.047v-.01a.545.545,0,0,0,.01-.056v-.01c0-.016,0-.032,0-.047v-.009c0-.016,0-.032,0-.047v-.019c0-.016-.006-.032-.01-.047v-.01a.57.57,0,0,0-.039-.1v-.01a.674.674,0,0,0-.039-.076l-.01-.019-.01-.009-2.772-4.42a.628.628,0,0,0-.516-.293h-.058Z" transform="translate(-210.206 -19.207)" fill="#256693" fill-rule="evenodd"/>
      </g>
    </g>
  </g>
</svg>
