<svg xmlns="http://www.w3.org/2000/svg" width="27.034" height="27.034" viewBox="0 0 27.034 27.034">
  <g id="Group_90461" data-name="Group 90461" transform="translate(-83.157 -4.679)">
    <path id="Path_124501" data-name="Path 124501" d="M20.463,3.048H6.57A6.571,6.571,0,0,0,0,9.618V23.511a6.571,6.571,0,0,0,6.57,6.57H20.463a6.571,6.571,0,0,0,6.57-6.57V9.618a6.571,6.571,0,0,0-6.57-6.57M16.947,16.563h-2.2v7.975h-3.3V16.563H9.8V13.815h1.649V12.166c0-2.243.931-3.576,3.576-3.576h2.2v2.75H15.846c-1.031,0-1.1.384-1.1,1.1l0,1.375h2.494Z" transform="translate(83.157 1.631)" fill="#fff"/>
  </g>
</svg>
