<svg id="Group_91173" data-name="Group 91173" xmlns="http://www.w3.org/2000/svg" width="85.305" height="57.595" viewBox="0 0 85.305 57.595">
  <g id="Group_90893" data-name="Group 90893" transform="translate(38.194)">
    <g id="Group_91028" data-name="Group 91028">
      <path id="Path_125052" data-name="Path 125052" d="M74.775,36.221,65.65,32.962,63.1,29.277a.614.614,0,0,0-.959-.065l-.867.949V27.469a11.082,11.082,0,0,0,3.348-7.355,3.417,3.417,0,0,0,2.649-1.582,4.245,4.245,0,0,0,.795-3.99c-.1-6.533-1.64-11.184-4.238-12.784a4.334,4.334,0,0,0-4.118-.174,9.234,9.234,0,0,0-9.983-.234,13.482,13.482,0,0,0-5.188,5.308,14.42,14.42,0,0,0-1.731,7.829,4.2,4.2,0,0,0,.767,4.044,3.42,3.42,0,0,0,2.649,1.582,11.082,11.082,0,0,0,3.348,7.355V30.16l-.867-.949a.61.61,0,0,0-.959.065l-2.552,3.687-9.13,3.259A5.992,5.992,0,0,0,31.867,41.9v15a.613.613,0,0,0,.612.612H78.364a.614.614,0,0,0,.614-.612v-15a6,6,0,0,0-4.2-5.682ZM62.526,30.6l1.981,2.862-3.476,8.769L56.266,37.47ZM55.42,38.356l3.629,3.629L56.6,44.429l2.612,11.866H51.4l2.835-11.866L51.789,41.98ZM50.314,2.425a8.04,8.04,0,0,1,8.965.36.611.611,0,0,0,.634.055A3.228,3.228,0,0,1,63.184,2.8c2.063,1.266,3.391,5.2,3.624,10.645a4.032,4.032,0,0,0-2.157.013l0-1.594a.612.612,0,0,0-.612-.6c-.926,0-2.38-1.7-3.344-2.818a16.559,16.559,0,0,0-1.131-1.242.611.611,0,0,0-.769-.049A25.8,25.8,0,0,1,46.77,11.269a.613.613,0,0,0-.579.609l-.008,1.589a3.963,3.963,0,0,0-2.186,0A12.852,12.852,0,0,1,50.314,2.425M47.417,19.4a.613.613,0,0,0-.616-.609.631.631,0,0,0-.2.034c-.959.332-1.812-.7-2.052-1.02a2.854,2.854,0,0,1-.587-2.877c.36-.488,1.318-.512,2.631-.068a.613.613,0,0,0,.775-.385.588.588,0,0,0,.032-.193l.008-1.83a27.678,27.678,0,0,0,11.653-4c.21.228.448.506.7.795,1.072,1.249,2.37,2.757,3.664,3.151l.008,1.882a.613.613,0,0,0,.615.61.658.658,0,0,0,.193-.032c1.318-.445,2.277-.419,2.631.068a2.854,2.854,0,0,1-.587,2.877c-.24.324-1.093,1.351-2.052,1.02a.612.612,0,0,0-.813.575c-.029,5.1-3.62,9.258-8,9.258s-7.972-4.154-8-9.258Zm3.374,9.049a8.2,8.2,0,0,0,9.26,0V31.5l-4.63,5.076L50.791,31.5Zm-2.479,2.157,6.261,6.864-4.765,4.765-3.476-8.769ZM33.091,41.9a4.745,4.745,0,0,1,3.186-4.465c.066-.023.132-.043.2-.064l8.836-3.156,3.7,9.334a.613.613,0,0,0,.8.343.6.6,0,0,0,.206-.135l.91-.91,1.964,1.964L50.145,56.3H39.982V52.079a.612.612,0,0,0-1.225,0v4.215H33.091ZM77.75,56.3H72.083V52.08a.612.612,0,0,0-1.225,0V56.3H60.471L57.947,44.828l1.966-1.975.91.91a.611.611,0,0,0,1.008-.207l3.7-9.334,8.836,3.156A4.744,4.744,0,0,1,77.751,41.9ZM49.415,14.452" transform="translate(-31.867 0)" fill="#638b5d"/>
    </g>
  </g>
  <g id="Group_90895" data-name="Group 90895" transform="translate(0 1.027)">
    <g id="Group_91027" data-name="Group 91027">
      <path id="Path_125053" data-name="Path 125053" d="M23.1,41.7a.593.593,0,0,0-.6.6v1.2a.6.6,0,0,0,1.2,0V42.3a.593.593,0,0,0-.6-.6m0,4.806a.593.593,0,0,0-.6.6v1.2a.6.6,0,1,0,1.2,0v-1.2a.593.593,0,0,0-.6-.6m0,4.806a.593.593,0,0,0-.6.6v1.2a.6.6,0,1,0,1.2,0v-1.2a.593.593,0,0,0-.6-.6m0,0a.593.593,0,0,0-.6.6v1.2a.6.6,0,1,0,1.2,0v-1.2a.593.593,0,0,0-.6-.6m0-4.806a.593.593,0,0,0-.6.6v1.2a.6.6,0,1,0,1.2,0v-1.2a.593.593,0,0,0-.6-.6m0-4.806a.593.593,0,0,0-.6.6v1.2a.6.6,0,0,0,1.2,0V42.3a.593.593,0,0,0-.6-.6M39.92,35.868l-6.493-2.4L29.784,30.6a.6.6,0,0,0-.8.048l-.144.144V28.947h6.424a.594.594,0,0,0,.6-.563,89.957,89.957,0,0,0-.078-11.006c0-.059-.033-.426-.066-.788a3.1,3.1,0,0,0-.1-.947c-.7-6.568-2.361-11.075-4.842-12.693A3.6,3.6,0,0,0,27.3,2.627,9.55,9.55,0,0,0,17,2.136c-3.356,1.99-8.618,8.054-6.089,26.3a.585.585,0,0,0,.587.515h5.861v1.846l-.156-.144a.589.589,0,0,0-.791-.048l-3.644,2.865-8.653,3.08A5.9,5.9,0,0,0,0,42.119V56.825a.6.6,0,0,0,.6.6l36.232-.091L36.753,56.1l-5.172.127,3.835-20.783,3.808,1.2Zm-10.46-4,2.877,2.265L27.495,41.8l-3.6-4.4ZM23.1,36.51l-4.542-4.519V28.923a8.058,8.058,0,0,0,9.085,0v3.068Zm11.59-8.761H29.065a10.934,10.934,0,0,0,3.056-7A3.322,3.322,0,0,0,34.7,19.215q.2,3.757-.012,8.534M12.477,10.825c1.019-3.62,2.793-6.268,5.13-7.647a8.384,8.384,0,0,1,9.265.611.611.611,0,0,0,.635.06,2.467,2.467,0,0,1,2.625.108c1.666,1.091,3.3,4.327,4.123,10.26a4,4,0,0,0-2.109.012V12.671a.6.6,0,0,0-.6-.587c-.911,0-2.337-1.666-3.284-2.769-.419-.491-.791-.923-1.1-1.223a.614.614,0,0,0-.755-.048A25.267,25.267,0,0,1,14.61,12.084a.592.592,0,0,0-.563.587l-.012,1.558a3.718,3.718,0,0,0-2.253.048,25.461,25.461,0,0,1,.7-3.452m-.455,16.923a62.243,62.243,0,0,1-.575-8.594c.012.024.012.036.024.048a3.413,3.413,0,0,0,2.6,1.558,10.93,10.93,0,0,0,3.056,6.988Zm3.224-7.695a.593.593,0,0,0-.6-.6.543.543,0,0,0-.192.036c-.947.324-1.774-.683-2.014-1.007-.731-.983-.995-2.253-.575-2.817.348-.479,1.282-.5,2.577-.072a.6.6,0,0,0,.791-.563l.012-1.8A26.983,26.983,0,0,0,26.668,9.315c.2.228.443.5.683.779,1.055,1.223,2.325,2.709,3.6,3.092v1.846a.585.585,0,0,0,.252.479.606.606,0,0,0,.551.084c1.282-.431,2.229-.408,2.577.072a.979.979,0,0,1,.132.276c.024.2.036.4.06.6a3.826,3.826,0,0,1-.767,1.942c-.24.324-1.079,1.33-2.014,1.007a.614.614,0,0,0-.539.072.637.637,0,0,0-.264.491c-.024,5-3.548,9.073-7.838,9.073s-7.814-4.075-7.85-9.073m1.486,11.818L22.281,37.4,18.7,41.8l-4.842-7.671ZM7.958,56.226V52.091a.6.6,0,1,0-1.2,0v4.135H1.2V42.119a4.668,4.668,0,0,1,3.32-4.447l6.256-2.229L14.61,56.226Zm22.4,0H15.821l-3.907-21.19.887-.312,5.322,8.414a.588.588,0,0,0,.467.276h.036a.58.58,0,0,0,.467-.216l4-4.89,4,4.89a.58.58,0,0,0,.467.216H27.6a.588.588,0,0,0,.467-.276l5.322-8.414.875.312ZM23.1,51.312a.593.593,0,0,0-.6.6v1.2a.6.6,0,1,0,1.2,0v-1.2a.593.593,0,0,0-.6-.6m0-4.806a.593.593,0,0,0-.6.6v1.2a.6.6,0,1,0,1.2,0v-1.2a.593.593,0,0,0-.6-.6m0-4.806a.593.593,0,0,0-.6.6v1.2a.6.6,0,0,0,1.2,0V42.3a.593.593,0,0,0-.6-.6" transform="translate(0 -0.856)" fill="#638b5d"/>
    </g>
  </g>
</svg>
