<svg xmlns="http://www.w3.org/2000/svg" width="34.554" height="45" viewBox="0 0 34.554 45">
  <g id="icon_pdf_2" data-name="icon pdf 2" transform="translate(0 0)">
    <g id="Group_91034" data-name="Group 91034">
      <path id="Path_124082" data-name="Path 124082" d="M22.741,1.206A4.313,4.313,0,0,0,19.688,0H7.634A7.683,7.683,0,0,0,0,7.635V37.367A7.683,7.683,0,0,0,7.634,45H26.92a7.683,7.683,0,0,0,7.634-7.634V14.225a4.369,4.369,0,0,0-1.366-3.214Zm9.4,36.161a5.213,5.213,0,0,1-5.223,5.223H7.634A5.213,5.213,0,0,1,2.41,37.367V7.635A5.213,5.213,0,0,1,7.634,2.412H19.768V9.644a4.459,4.459,0,0,0,4.42,4.42h7.955v23.3Z" transform="translate(0 -0.001)" fill="#256693"/>
    </g>
  </g>
</svg>
