<svg id="Group_90802" data-name="Group 90802" xmlns="http://www.w3.org/2000/svg" xmlns:xlink="http://www.w3.org/1999/xlink" width="27.04" height="27.05" viewBox="0 0 27.04 27.05">
  <defs>
    <clipPath id="clip-path">
      <rect id="Rectangle_5844" data-name="Rectangle 5844" width="27.04" height="27.05" transform="translate(0 0)" fill="#fff"/>
    </clipPath>
  </defs>
  <g id="Group_90804" data-name="Group 90804" clip-path="url(#clip-path)">
    <path id="Path_125042" data-name="Path 125042" d="M17.48,5.9H9.56A3.67,3.67,0,0,0,5.89,9.56v7.93a3.67,3.67,0,0,0,3.67,3.66h7.92a3.67,3.67,0,0,0,3.67-3.66V9.56A3.67,3.67,0,0,0,17.48,5.9m-.63,10.96a4.716,4.716,0,1,1,1.38-3.34,4.7,4.7,0,0,1-1.38,3.34m1.58-7.19a1.13,1.13,0,1,1,1.14-1.13,1.129,1.129,0,0,1-1.14,1.13m-4.91.72a3.135,3.135,0,1,0,3.13,3.13,3.141,3.141,0,0,0-3.13-3.13" fill="#fff" fill-rule="evenodd"/>
    <path id="Path_125043" data-name="Path 125043" d="M21.09,0H5.95A5.977,5.977,0,0,0,0,5.95V21.08a5.981,5.981,0,0,0,5.95,5.97H21.09a5.981,5.981,0,0,0,5.95-5.97V5.95A5.977,5.977,0,0,0,21.09,0m1.63,17.49a5.239,5.239,0,0,1-5.24,5.24H9.56a5.239,5.239,0,0,1-5.24-5.24V9.56A5.245,5.245,0,0,1,9.56,4.32h7.92a5.245,5.245,0,0,1,5.24,5.24Z" fill="#fff" fill-rule="evenodd"/>
  </g>
</svg>
