<svg xmlns="http://www.w3.org/2000/svg" width="20.511" height="20.511" viewBox="0 0 20.511 20.511">
  <g id="Group_91167" data-name="Group 91167" transform="translate(0 0)">
    <g id="Group_91043" data-name="Group 91043">
      <path id="Path_125389" data-name="Path 125389" d="M0,1.468A1.494,1.494,0,0,1,1.516,0H18.995a1.493,1.493,0,0,1,1.516,1.469V19.041a1.493,1.493,0,0,1-1.516,1.469H1.516A1.493,1.493,0,0,1,0,19.041V1.468Z" transform="translate(0 0.001)" fill="#256693"/>
      <path id="Path_125390" data-name="Path 125390" d="M21.592,35.08V25.846H18.523V35.08h3.069ZM20.058,24.586a1.6,1.6,0,1,0,.02-3.191,1.6,1.6,0,1,0-.04,3.191h.02ZM23.291,35.08H26.36V29.924a2.1,2.1,0,0,1,.1-.749,1.68,1.68,0,0,1,1.575-1.123c1.11,0,1.555.847,1.555,2.088V35.08H32.66V29.786c0-2.836-1.514-4.156-3.533-4.156a3.058,3.058,0,0,0-2.787,1.556h.02V25.847H23.291c.04.866,0,9.234,0,9.234Z" transform="translate(-15.359 -17.916)" fill="#fff"/>
    </g>
  </g>
</svg>
