<svg xmlns="http://www.w3.org/2000/svg" width="63.949" height="61.672" viewBox="0 0 63.949 61.672">
  <g id="Group_91182" data-name="Group 91182" transform="translate(0.6 0.6)">
    <g id="Group_91025" data-name="Group 91025">
      <path id="Path_125384" data-name="Path 125384" d="M194.5,53.414V3A2.5,2.5,0,0,0,192,.5H150.44a2.5,2.5,0,0,0-2.5,2.5V53.177a7.549,7.549,0,0,0,7.549,7.549H194.5" transform="translate(-147.936 -0.5)" fill="none" stroke="#fff" stroke-width="1.2"/>
      <path id="Path_125385" data-name="Path 125385" d="M.516,277.485a8.1,8.1,0,0,0,16.187-.518V255.552a3.268,3.268,0,0,0-3.268-3.268H.5v.169" transform="translate(46.046 -224.644)" fill="none" stroke="#fff" stroke-width="1.2"/>
      <line id="Line_4146" data-name="Line 4146" x1="10.988" transform="translate(6.756 9.477)" fill="none" stroke="#fff" stroke-width="1.2"/>
      <line id="Line_4147" data-name="Line 4147" x1="10.988" transform="translate(6.756 14.799)" fill="none" stroke="#fff" stroke-width="1.2"/>
      <line id="Line_4148" data-name="Line 4148" x1="10.988" transform="translate(6.756 20.199)" fill="none" stroke="#fff" stroke-width="1.2"/>
      <line id="Line_4149" data-name="Line 4149" x1="10.988" transform="translate(29.326 39.182)" fill="none" stroke="#fff" stroke-width="1.2"/>
      <line id="Line_4150" data-name="Line 4150" x1="10.988" transform="translate(29.326 44.505)" fill="none" stroke="#fff" stroke-width="1.2"/>
      <line id="Line_4151" data-name="Line 4151" x1="10.988" transform="translate(29.326 49.905)" fill="none" stroke="#fff" stroke-width="1.2"/>
      <line id="Line_4152" data-name="Line 4152" x1="33.81" transform="translate(6.756 29.826)" fill="none" stroke="#fff" stroke-width="1.2"/>
      <line id="Line_4153" data-name="Line 4153" x2="8.426" y2="0.246" transform="translate(46.564 60.226)" fill="none" stroke="#fff" stroke-width="1.2"/>
      <path id="Path_125386" data-name="Path 125386" d="M218.627,88.561h15.814a.665.665,0,0,0,.665-.665V75.015a.665.665,0,0,0-.665-.665H218.627a.665.665,0,0,0-.665.665V87.9a.665.665,0,0,0,.665.665Z" transform="translate(-196.228 -66.243)" fill="none" stroke="#fff" stroke-width="1.2"/>
      <path id="Path_125387" data-name="Path 125387" d="M369.4,359.308h15.821a.665.665,0,0,0,.665-.665V345.755a.665.665,0,0,0-.665-.665H369.4a.665.665,0,0,0-.665.665v12.889a.665.665,0,0,0,.665.665Z" transform="translate(-363.563 -307.263)" fill="none" stroke="#fff" stroke-width="1.2"/>
    </g>
  </g>
</svg>
