<svg xmlns="http://www.w3.org/2000/svg" width="54.71" height="54.624" viewBox="0 0 54.71 54.624">
  <g id="אייקון_כח_אדם" data-name="אייקון כח אדם" transform="translate(0.511 0.629)">
    <g id="Group_89794" data-name="Group 89794" transform="translate(0.12)">
      <path id="Path_124120" data-name="Path 124120" d="M53.321,40.212a10.154,10.154,0,0,0-12.693-6.134L33.7,27.146l-6.471,6.472,6.92,6.92a10.167,10.167,0,0,0,9.626,13.354h0a10.209,10.209,0,0,0,3.984-.813.546.546,0,0,0,.173-.889l-5.294-5.3,4.245-4.246L52.2,47.977a.546.546,0,0,0,.885-.168A10.148,10.148,0,0,0,53.321,40.212Zm-33-26.441A10.153,10.153,0,0,0,6.691,1.308a.545.545,0,0,0-.172.888l5.3,5.3-4.25,4.245L2.242,6.411a.546.546,0,0,0-.885.167A10.153,10.153,0,0,0,13.889,20.284l6.863,6.862,6.472-6.471Z" transform="translate(-0.5 -0.5)" fill="none" stroke="#0b5583" stroke-width="1.2"/>
      <path id="Path_124121" data-name="Path 124121" d="M53.313,14.2A10.152,10.152,0,0,1,40.56,20.284L33.7,27.146l-6.471,6.472L20.3,40.539a10.167,10.167,0,0,1-9.626,13.354h0a10.212,10.212,0,0,1-3.984-.813.547.547,0,0,1-.173-.889l5.3-5.3L7.571,42.65,2.244,47.977a.546.546,0,0,1-.885-.168A10.153,10.153,0,0,1,13.821,34.079l6.932-6.932,6.472-6.471,6.9-6.9A10.153,10.153,0,0,1,47.758,1.308a.545.545,0,0,1,.172.888l-5.294,5.3,4.249,4.245,5.322-5.326a.546.546,0,0,1,.885.167A10.149,10.149,0,0,1,53.313,14.2Z" transform="translate(-0.501 -0.5)" fill="none" stroke="#0b5583" stroke-width="1.2"/>
    </g>
  </g>
</svg>
