<svg xmlns="http://www.w3.org/2000/svg" width="27.268" height="27.008" viewBox="0 0 27.268 27.008">
  <g id="Group_90360" data-name="Group 90360" transform="translate(-1323.409 -1161.649)">
    <g id="Group_88557" data-name="Group 88557" transform="translate(1323.409 1161.649)">
      <path id="Path_123091" data-name="Path 123091" d="M215.895,11.262a13.579,13.579,0,0,0-13.634,13.5,13.407,13.407,0,0,0,2.239,7.411l-1.524,5.04a.613.613,0,0,0,.416.764.624.624,0,0,0,.379-.008l4.98-1.7a13.549,13.549,0,1,0,7.144-25.008Z" transform="translate(-202.261 -11.262)" fill="#80c675" fill-rule="evenodd"/>
      <path id="Path_123090" data-name="Path 123090" d="M213.45,19.207a.6.6,0,0,0-.126.026,4.317,4.317,0,0,0-2.665,1.927,4.245,4.245,0,0,0-.34,2.943,13.112,13.112,0,0,0,3.783,6.189,13.393,13.393,0,0,0,6.305,3.794,4.7,4.7,0,0,0,3.085-.313,4.534,4.534,0,0,0,2.129-2.613.548.548,0,0,0-.233-.651l-4.078-2.483-.009-.008a.532.532,0,0,0-.062-.035.582.582,0,0,0-.2-.078h-.018l-.045-.009h-.009a.585.585,0,0,0-.278.052A.634.634,0,0,0,220.6,28a.622.622,0,0,0-.053.035c-.007.008-.012.017-.018.026a.594.594,0,0,0-.062.061l-.894.877a9.944,9.944,0,0,1-3.988-3.915l.823-.79a.607.607,0,0,0,.045-.043c.012-.011.024-.023.035-.034v-.009a.473.473,0,0,0,.036-.034v-.009c.007-.008.012-.017.018-.026l.018-.017a.452.452,0,0,0,.018-.043v-.008l.009-.017.018-.034c0-.014.006-.029.009-.043v-.009a.5.5,0,0,0,.009-.052V23.9c0-.014,0-.029,0-.043v-.008c0-.015,0-.029,0-.043v-.017c0-.015-.006-.029-.009-.043v-.009a.523.523,0,0,0-.036-.1v-.009a.622.622,0,0,0-.036-.07l-.009-.017-.009-.008-2.549-4.063a.577.577,0,0,0-.474-.269h-.053Z" transform="translate(-203.53 -13.203)" fill="#fff" fill-rule="evenodd"/>
    </g>
  </g>
</svg>
