<svg xmlns="http://www.w3.org/2000/svg" width="22.788" height="22.571" viewBox="0 0 22.788 22.571">
  <g id="whatsapp_share_icon" data-name="whatsapp share icon" transform="translate(0 0)">
    <g id="Group_90494" data-name="Group 90494">
      <path id="Path_124516" data-name="Path 124516" d="M213.655,11.262a11.348,11.348,0,0,0-11.394,11.285,11.2,11.2,0,0,0,1.871,6.193l-1.274,4.212a.512.512,0,0,0,.348.639.521.521,0,0,0,.317-.007l4.162-1.423a11.323,11.323,0,1,0,5.97-20.9Z" transform="translate(-202.261 -11.262)" fill="#256693" fill-rule="evenodd"/>
      <g id="Group_90491" data-name="Group 90491" transform="translate(4.737 4.811)">
        <g id="Group_88557" data-name="Group 88557" transform="translate(0 0)">
          <path id="Path_123090" data-name="Path 123090" d="M213,19.207a.513.513,0,0,0-.108.023,3.721,3.721,0,0,0-2.3,1.664,3.669,3.669,0,0,0-.293,2.54,11.321,11.321,0,0,0,3.261,5.342A11.541,11.541,0,0,0,219,32.051a4.049,4.049,0,0,0,2.659-.27,3.912,3.912,0,0,0,1.835-2.255.473.473,0,0,0-.2-.562l-3.515-2.143-.007-.007a.462.462,0,0,0-.054-.03.5.5,0,0,0-.17-.067h-.015l-.039-.008h-.007a.5.5,0,0,0-.239.045.545.545,0,0,0-.077.045.536.536,0,0,0-.046.03c-.006.007-.011.015-.016.023a.514.514,0,0,0-.054.052l-.771.757a8.577,8.577,0,0,1-3.438-3.379l.709-.682a.522.522,0,0,0,.039-.037c.011-.009.021-.02.031-.03v-.008a.415.415,0,0,0,.031-.03v-.008c.006-.007.011-.015.016-.023l.015-.015c.006-.012.011-.025.015-.037V23.4l.008-.015.015-.03c0-.012.005-.025.007-.037v-.008a.435.435,0,0,0,.008-.045v-.008c0-.012,0-.025,0-.037v-.007c0-.013,0-.025,0-.037v-.015c0-.013,0-.025-.008-.037v-.008a.452.452,0,0,0-.031-.082V23.03a.539.539,0,0,0-.031-.06l-.008-.015-.008-.007-2.2-3.507a.5.5,0,0,0-.409-.233H213Z" transform="translate(-210.206 -19.207)" fill="#fff" fill-rule="evenodd"/>
        </g>
      </g>
    </g>
  </g>
</svg>
