<svg xmlns="http://www.w3.org/2000/svg" width="39.108" height="27.042" viewBox="0 0 39.108 27.042">
  <g id="Group_90462" data-name="Group 90462" transform="translate(0 0)">
    <g id="Group_90463" data-name="Group 90463" transform="translate(0 0)">
      <path id="Path_124508" data-name="Path 124508" d="M38.869,5.556C38.6,2.664,37.356,1.2,34.771.522a14.764,14.764,0,0,0-3.736-.5Q19.905,0,8.777.006A22.952,22.952,0,0,0,5.552.271C2.218.753.465,2.4.213,5.229a93.272,93.272,0,0,0-.158,9.929H15.524V7.842l10.481,5.438-2.453,1.444-8.028,4.049V15.159H.055a28.4,28.4,0,0,0,.188,5.384c.441,3.546,2.169,5.379,5.679,6.115a18.693,18.693,0,0,0,3.857.383c6.514,0,13.029.01,19.543-.011a28.392,28.392,0,0,0,3.442-.223c3.451-.434,5.322-2.107,5.913-5.312a27.2,27.2,0,0,0,.352-6.554,71.994,71.994,0,0,0-.161-9.385" transform="translate(0 0)" fill="#fff"/>
    </g>
  </g>
</svg>
